<svg xmlns="http://www.w3.org/2000/svg" width="1000" height="143" viewBox="0 0 1000 143">
  <defs>
    <style>
      .a {
        fill: #00b700;
      }
    </style>
  </defs>
  <title>logo</title>
  <g>
    <g>
      <path class="a" d="M43.44,51.93V.1H0V72C11.48,64.64,26.69,57.94,43.44,51.93Z"/>
      <path class="a" d="M126.19,29.42V0H82.75V39.82C97.64,35.82,112.43,32.32,126.19,29.42Z"/>
    </g>
    <path class="a" d="M82.75,53.53V91.36a11.16,11.16,0,0,1-4.24,8.7C62.06,113.27,43.44,102.16,43.44,87V69.14C25.44,77.25,2.07,91,1,94c2.07,10,8.9,21.71,15.21,28.52a62.28,62.28,0,0,0,23.27,16.11c17.17,6.7,38,6.3,58.75-4.91a53,53,0,0,0,27.83-46.63V39.62C112.23,43.63,97.33,48.33,82.75,53.53Z"/>
    <path class="a" d="M223,0H139.53V26.62c28.86-5.81,49.86-8.81,49.86-8.81A46.69,46.69,0,0,1,214.21,7c18-2.2,34,6.81,33,8.71-.11.2-5.8,12.51-30,15.11a115.61,115.61,0,0,1-12.1,0s-5.79,9.71-15.21,7.2a1.61,1.61,0,0,1-.72-2.7c1.86-1.9,4.55-6.9,3.21-8.5-2.28-2.5-24.31,1.3-53,9V142.89h42.1V121.18H222.9c6.31,0,20.58-3.31,20.58-3.31C268.93,110.07,286,87.65,286,60.44,286,26.82,257.86,0,223,0ZM199.32,7.7A19.21,19.21,0,0,0,189.8,13a1.4,1.4,0,0,1-2.17-.3,14.61,14.61,0,0,0-4.86-5.31,1.61,1.61,0,0,1,0-2.8C191.15-.3,200.66,6.9,199.32,7.7Zm43.13,67.75a12.09,12.09,0,0,1-9.1,4.1H181.53v-38H228.9C244.62,41.53,256.93,59.24,242.45,75.45Z"/>
    <rect class="a" x="315.06" y="0.1" width="2.07" height="142.89"/>
    <g>
      <g>
        <path class="a" d="M347.64,26a24.26,24.26,0,0,1,1.45-8,21.81,21.81,0,0,1,4.24-7.1,21.52,21.52,0,0,1,6.83-5.11,21,21,0,0,1,9.2-2,19.85,19.85,0,0,1,10.55,2.7,16.37,16.37,0,0,1,6.42,7l-3.52,2.1a12.89,12.89,0,0,0-2.69-3.7,13,13,0,0,0-3.41-2.4A13.83,13.83,0,0,0,373,8.21a16.58,16.58,0,0,0-3.82-.41,15.81,15.81,0,0,0-7.35,1.61,17.11,17.11,0,0,0-5.38,4.3,18.87,18.87,0,0,0-3.31,5.9A21.33,21.33,0,0,0,352,26.32a18.48,18.48,0,0,0,1.34,7.1,20.89,20.89,0,0,0,3.62,6,16.81,16.81,0,0,0,5.48,4.11,15.5,15.5,0,0,0,6.83,1.5,17.63,17.63,0,0,0,3.93-.5,15.85,15.85,0,0,0,7.45-4.1,14.92,14.92,0,0,0,2.69-3.71l3.72,1.9A13.18,13.18,0,0,1,384,43a20.13,20.13,0,0,1-4.45,3.2,25.11,25.11,0,0,1-5.17,2,20.4,20.4,0,0,1-5.38.7,19.76,19.76,0,0,1-8.69-2,24.46,24.46,0,0,1-6.83-5.2A24.2,24.2,0,0,1,349,34.42,29.59,29.59,0,0,1,347.64,26Z"/>
        <path class="a" d="M408.56,49.13a16.41,16.41,0,0,1-6.72-1.3,15,15,0,0,1-5.27-3.7,14.78,14.78,0,0,1-3.42-5.41,17.09,17.09,0,0,1,3.52-18.31,16.58,16.58,0,0,1,5.27-3.7,16.37,16.37,0,0,1,6.62-1.4,16.85,16.85,0,0,1,6.73,1.4,15,15,0,0,1,5.27,3.7,16.44,16.44,0,0,1,3.52,5.41,16.91,16.91,0,0,1,1.24,6.5,16.41,16.41,0,0,1-1.24,6.4,18.69,18.69,0,0,1-3.41,5.41,16.51,16.51,0,0,1-5.28,3.7A19.68,19.68,0,0,1,408.56,49.13Zm-12.2-16.81a13.23,13.23,0,0,0,3.52,9.21,11.94,11.94,0,0,0,3.93,2.8,11.81,11.81,0,0,0,9.51,0,13.2,13.2,0,0,0,3.93-2.8,14.72,14.72,0,0,0,2.69-4.21,14.45,14.45,0,0,0,0-10.2,12.85,12.85,0,0,0-2.69-4.21,12,12,0,0,0-3.93-2.8,11.81,11.81,0,0,0-9.51,0,13.2,13.2,0,0,0-3.93,2.8,14.72,14.72,0,0,0-2.69,4.21A17.56,17.56,0,0,0,396.36,32.32Z"/>
        <path class="a" d="M461,48.53h-4.45V30.32c0-3.9-.62-6.71-1.76-8.41s-3-2.6-5.48-2.6a10.84,10.84,0,0,0-3.93.7,15.21,15.21,0,0,0-3.62,1.9,11.56,11.56,0,0,0-2.9,3,12.38,12.38,0,0,0-1.86,3.7V48.53h-4.45V15.91h4v7.4a15.28,15.28,0,0,1,5.89-5.8,16.38,16.38,0,0,1,8.38-2.2,10.1,10.1,0,0,1,4.76,1,7.54,7.54,0,0,1,3.1,2.8,11.21,11.21,0,0,1,1.65,4.4,32.94,32.94,0,0,1,.52,5.81V48.53Z"/>
        <path class="a" d="M486.55,46.93c-.31.1-.62.3-1.13.5a17.77,17.77,0,0,1-1.76.6c-.62.2-1.35.4-2.17.6a10.82,10.82,0,0,1-2.59.3,8,8,0,0,1-2.69-.4,6.24,6.24,0,0,1-2.28-1.2,6.3,6.3,0,0,1-1.55-2,6,6,0,0,1-.62-2.8V19.31h-4.65v-3.4h4.65V4.9h4.45v11H484v3.4h-7.76V41.43a3.48,3.48,0,0,0,1.34,2.7,4.57,4.57,0,0,0,2.8.8,8.47,8.47,0,0,0,3.31-.6c.93-.4,1.55-.7,1.86-.8Z"/>
        <path class="a" d="M506.62,49.13a16.06,16.06,0,0,1-6.72-1.3,16.47,16.47,0,0,1-5.38-3.7,16.94,16.94,0,0,1-4.76-12,17.28,17.28,0,0,1,1.24-6.5,15.51,15.51,0,0,1,3.52-5.31,16.82,16.82,0,0,1,12.1-4.9,16.06,16.06,0,0,1,6.72,1.3,15.09,15.09,0,0,1,5.28,3.7A16.8,16.8,0,0,1,522,25.72a16.41,16.41,0,0,1,1.24,6.4v1c0,.3,0,.6-.1.7H494.31a11.82,11.82,0,0,0,1.24,4.8,12,12,0,0,0,2.8,3.81,11.82,11.82,0,0,0,3.82,2.5,12.05,12.05,0,0,0,4.66.9,11.7,11.7,0,0,0,3.2-.4,15.4,15.4,0,0,0,3-1.2,11.32,11.32,0,0,0,2.49-1.8A6.31,6.31,0,0,0,517.17,40L521,41a11.58,11.58,0,0,1-2.17,3.3,17.29,17.29,0,0,1-3.31,2.6,17.12,17.12,0,0,1-4.14,1.7A24.78,24.78,0,0,1,506.62,49.13ZM519,30.52a12.25,12.25,0,0,0-1.24-4.8A14.26,14.26,0,0,0,515.1,22a11.69,11.69,0,0,0-3.83-2.4,12.46,12.46,0,0,0-9.3,0,12.22,12.22,0,0,0-3.83,2.4,11.59,11.59,0,0,0-2.69,3.81,14,14,0,0,0-1.24,4.8H519Z"/>
        <path class="a" d="M558.34,48.53h-4.45V30.32c0-3.9-.62-6.71-1.76-8.41s-3-2.6-5.48-2.6a10.84,10.84,0,0,0-3.93.7,15.41,15.41,0,0,0-3.62,1.9,11.56,11.56,0,0,0-2.9,3,12.38,12.38,0,0,0-1.86,3.7V48.53h-4.45V15.91h4v7.4a15.35,15.35,0,0,1,5.89-5.8,16.38,16.38,0,0,1,8.38-2.2,10.1,10.1,0,0,1,4.76,1,7.54,7.54,0,0,1,3.1,2.8,11.22,11.22,0,0,1,1.66,4.4,34,34,0,0,1,.51,5.81V48.53Z"/>
        <path class="a" d="M583.88,46.93c-.31.1-.62.3-1.13.5A17.77,17.77,0,0,1,581,48c-.62.2-1.35.4-2.17.6a10.82,10.82,0,0,1-2.59.3,8,8,0,0,1-2.69-.4,6.12,6.12,0,0,1-2.27-1.2,6.32,6.32,0,0,1-1.56-2,6,6,0,0,1-.62-2.8V19.31h-4.65v-3.4h4.65V4.9h4.45v11h7.76v3.4h-7.76V41.43a3.49,3.49,0,0,0,1.35,2.7,4.52,4.52,0,0,0,2.79.8,8.47,8.47,0,0,0,3.31-.6c.93-.4,1.55-.7,1.86-.8Z"/>
        <path class="a" d="M647.5,48.53V12L630.74,40.22h-2.69L611.3,12V48.43h-4.56V4.1h4.66l17.89,30.42L647.39,4.1h4.55V48.53Z"/>
        <path class="a" d="M671.08,49.13a13,13,0,0,1-4.45-.8,9,9,0,0,1-3.51-2.2,10.37,10.37,0,0,1-2.38-3.2,10.23,10.23,0,0,1-.83-4,7.4,7.4,0,0,1,1-3.9,9.42,9.42,0,0,1,2.9-3.1,12,12,0,0,1,4.45-2,20.59,20.59,0,0,1,5.69-.7,31.26,31.26,0,0,1,5.27.4,21.92,21.92,0,0,1,4.76,1.3V28a9.11,9.11,0,0,0-2.48-6.81,9.83,9.83,0,0,0-7-2.5,14.07,14.07,0,0,0-5.27,1,24.23,24.23,0,0,0-5.48,2.9l-1.56-2.8c4.35-2.8,8.59-4.3,12.73-4.3s7.55,1.1,9.93,3.4a12.7,12.7,0,0,1,3.62,9.51V43.13c0,1.2.51,1.8,1.65,1.8v3.8c-.72.1-1.34.2-1.65.2a4,4,0,0,1-2.59-.8,3.23,3.23,0,0,1-1-2.3l-.11-2.6a14.35,14.35,0,0,1-5.89,4.5A22.63,22.63,0,0,1,671.08,49.13Zm1-3.3a14.8,14.8,0,0,0,6.31-1.3,9.15,9.15,0,0,0,4.35-3.3A2.86,2.86,0,0,0,683.6,40a5.31,5.31,0,0,0,.31-1.2v-5.3a33.72,33.72,0,0,0-4.56-1.3,25.79,25.79,0,0,0-4.86-.4,13.37,13.37,0,0,0-7.55,1.9,5.65,5.65,0,0,0-2.89,4.9,6.47,6.47,0,0,0,.62,2.81,6.93,6.93,0,0,0,4.24,3.8A11.34,11.34,0,0,0,672.11,45.83Z"/>
        <path class="a" d="M726.21,48.53h-4.45V30.32c0-3.9-.62-6.71-1.76-8.41s-3-2.6-5.48-2.6a10.92,10.92,0,0,0-3.93.7,15.6,15.6,0,0,0-3.62,1.9,11.37,11.37,0,0,0-2.89,3,12.65,12.65,0,0,0-1.87,3.7V48.53h-4.44V15.91h4v7.4a15.31,15.31,0,0,1,5.9-5.8,16.32,16.32,0,0,1,8.37-2.2,10,10,0,0,1,4.76,1,7.48,7.48,0,0,1,3.1,2.8,11.22,11.22,0,0,1,1.66,4.4,33.92,33.92,0,0,1,.52,5.81V48.53Z"/>
        <path class="a" d="M744,49.13a13,13,0,0,1-4.45-.8,9,9,0,0,1-3.51-2.2,10.37,10.37,0,0,1-2.38-3.2,10.23,10.23,0,0,1-.83-4,7.4,7.4,0,0,1,1-3.9,9.42,9.42,0,0,1,2.9-3.1,12,12,0,0,1,4.45-2,20.59,20.59,0,0,1,5.69-.7,31.18,31.18,0,0,1,5.27.4,21.92,21.92,0,0,1,4.76,1.3V28a9.11,9.11,0,0,0-2.48-6.81,9.83,9.83,0,0,0-7-2.5,14.11,14.11,0,0,0-5.27,1,24.23,24.23,0,0,0-5.48,2.9l-1.55-2.8c4.34-2.8,8.58-4.3,12.72-4.3s7.55,1.1,9.93,3.4a12.7,12.7,0,0,1,3.62,9.51V43.13c0,1.2.51,1.8,1.65,1.8v3.8c-.72.1-1.34.2-1.65.2a4,4,0,0,1-2.59-.8,3.23,3.23,0,0,1-1-2.3l-.11-2.6a14.35,14.35,0,0,1-5.89,4.5A22.2,22.2,0,0,1,744,49.13Zm1-3.3a14.78,14.78,0,0,0,6.3-1.3,9.15,9.15,0,0,0,4.35-3.3,2.86,2.86,0,0,0,.83-1.21,5.31,5.31,0,0,0,.31-1.2v-5.3a34,34,0,0,0-4.55-1.3,26,26,0,0,0-4.87-.4,13.37,13.37,0,0,0-7.55,1.9,5.65,5.65,0,0,0-2.89,4.9,6.47,6.47,0,0,0,.62,2.81,6.93,6.93,0,0,0,4.24,3.8A11.34,11.34,0,0,0,745,45.83Z"/>
        <path class="a" d="M784.34,48.93a15,15,0,0,1-6.41-1.4,15.18,15.18,0,0,1-5-3.7,16.54,16.54,0,0,1-3.31-5.31,16,16,0,0,1-1.14-6.2,20.12,20.12,0,0,1,1.14-6.5,15.77,15.77,0,0,1,3.21-5.41,15.08,15.08,0,0,1,11.38-5.1,13.56,13.56,0,0,1,7.55,2.1,22.56,22.56,0,0,1,5.48,5.3v-6.8h3.93V48.63a12.57,12.57,0,0,1-1.34,6,13.47,13.47,0,0,1-3.52,4.31,14.35,14.35,0,0,1-5.28,2.6,22,22,0,0,1-6.41.9,19.48,19.48,0,0,1-9.41-2A16.29,16.29,0,0,1,769.45,55l2.68-2.1a12.23,12.23,0,0,0,5.28,4.61,16.85,16.85,0,0,0,7.14,1.5,14.15,14.15,0,0,0,4.65-.7,11.36,11.36,0,0,0,3.83-1.9,8.39,8.39,0,0,0,2.58-3.31,10.48,10.48,0,0,0,.94-4.6v-6.4a14.43,14.43,0,0,1-5.28,4.9A13.14,13.14,0,0,1,784.34,48.93Zm1.24-3.6a10,10,0,0,0,3.83-.7,18.07,18.07,0,0,0,3.41-1.8,12.31,12.31,0,0,0,2.59-2.61,7.28,7.28,0,0,0,1.34-2.9V27.22a14,14,0,0,0-2-3.31,13.48,13.48,0,0,0-2.8-2.6,14.61,14.61,0,0,0-3.31-1.7,10.91,10.91,0,0,0-3.62-.6,10.45,10.45,0,0,0-5.06,1.2,13.85,13.85,0,0,0-3.83,3,13.68,13.68,0,0,0-2.38,4.31,15.53,15.53,0,0,0-.83,4.8,13.46,13.46,0,0,0,.93,5,12.85,12.85,0,0,0,2.69,4.21,13.33,13.33,0,0,0,3.93,2.8A12.74,12.74,0,0,0,785.58,45.33Z"/>
        <path class="a" d="M825.3,49.13a16.06,16.06,0,0,1-6.72-1.3,16.47,16.47,0,0,1-5.38-3.7,16.94,16.94,0,0,1-4.76-12,17.28,17.28,0,0,1,1.24-6.5,15.51,15.51,0,0,1,3.52-5.31,16.82,16.82,0,0,1,12.1-4.9,16.06,16.06,0,0,1,6.72,1.3,15.09,15.09,0,0,1,5.28,3.7,16.8,16.8,0,0,1,3.41,5.31,16.41,16.41,0,0,1,1.24,6.4v1c0,.3,0,.6-.1.7H813a11.82,11.82,0,0,0,1.24,4.8,12,12,0,0,0,2.8,3.81,11.82,11.82,0,0,0,3.82,2.5,12.05,12.05,0,0,0,4.66.9,11.7,11.7,0,0,0,3.2-.4,15.4,15.4,0,0,0,3-1.2,11.32,11.32,0,0,0,2.49-1.8A6.31,6.31,0,0,0,835.85,40l3.83,1a11.58,11.58,0,0,1-2.17,3.3,17.29,17.29,0,0,1-3.31,2.6,17.12,17.12,0,0,1-4.14,1.7A24.78,24.78,0,0,1,825.3,49.13Zm12.41-18.61a12.25,12.25,0,0,0-1.24-4.8A14.26,14.26,0,0,0,833.78,22a11.69,11.69,0,0,0-3.83-2.4,12.46,12.46,0,0,0-9.3,0,12.22,12.22,0,0,0-3.83,2.4,11.59,11.59,0,0,0-2.69,3.81,14.26,14.26,0,0,0-1.24,4.8h24.82Z"/>
        <path class="a" d="M898.84,48.53h-4.45V30.32c0-3.8-.62-6.61-1.86-8.41a6.33,6.33,0,0,0-5.58-2.7,8.6,8.6,0,0,0-3.62.7,14.82,14.82,0,0,0-3.21,1.9,12.61,12.61,0,0,0-2.59,3,11.63,11.63,0,0,0-1.65,3.8V48.53h-4.45V30.32c0-3.9-.62-6.71-1.86-8.41a6.5,6.5,0,0,0-5.59-2.6,10.36,10.36,0,0,0-6.82,2.6,14.05,14.05,0,0,0-4.24,6.81V48.63h-4.45V15.91h4v7.4a15.12,15.12,0,0,1,5.49-5.8,13.91,13.91,0,0,1,7.44-2.1,9.82,9.82,0,0,1,6.83,2.3,9.77,9.77,0,0,1,3.1,6.1q4.67-8.4,13-8.4a10.54,10.54,0,0,1,4.87,1,8.52,8.52,0,0,1,3.2,2.8,13.08,13.08,0,0,1,1.76,4.4,25.63,25.63,0,0,1,.52,5.81V48.53Z"/>
        <path class="a" d="M922.73,49.13a16.09,16.09,0,0,1-6.72-1.3,16.47,16.47,0,0,1-5.38-3.7,16.75,16.75,0,0,1-3.51-5.41,17.06,17.06,0,0,1-1.25-6.6,17.28,17.28,0,0,1,1.25-6.5,15.34,15.34,0,0,1,3.51-5.31,16.82,16.82,0,0,1,12.1-4.9,16.11,16.11,0,0,1,6.73,1.3,15,15,0,0,1,5.27,3.7,16.82,16.82,0,0,1,3.42,5.31,16.59,16.59,0,0,1,1.24,6.4v1c0,.3,0,.6-.11.7H910.43a11.66,11.66,0,0,0,1.24,4.8,11.83,11.83,0,0,0,2.79,3.81,12.1,12.1,0,0,0,8.48,3.4,11.77,11.77,0,0,0,3.21-.4,15.66,15.66,0,0,0,3-1.2,11,11,0,0,0,2.48-1.8A6.45,6.45,0,0,0,933.29,40l3.82,1a11.58,11.58,0,0,1-2.17,3.3,15.77,15.77,0,0,1-7.45,4.3A24.7,24.7,0,0,1,922.73,49.13Zm12.42-18.61a12.43,12.43,0,0,0-1.24-4.8A14.74,14.74,0,0,0,931.22,22a11.69,11.69,0,0,0-3.83-2.4,12.49,12.49,0,0,0-9.31,0,12.33,12.33,0,0,0-3.83,2.4,11.89,11.89,0,0,0-2.69,3.81,17.43,17.43,0,0,0-1.24,4.8h24.83Z"/>
        <path class="a" d="M974.45,48.53H970V30.32c0-3.9-.62-6.71-1.75-8.41s-3-2.6-5.49-2.6a10.92,10.92,0,0,0-3.93.7,15.6,15.6,0,0,0-3.62,1.9,11.53,11.53,0,0,0-2.89,3,12.38,12.38,0,0,0-1.86,3.7V48.53H946V15.91h4v7.4a15.38,15.38,0,0,1,5.9-5.8,16.36,16.36,0,0,1,8.38-2.2,10,10,0,0,1,4.75,1,7.57,7.57,0,0,1,3.11,2.8,11.37,11.37,0,0,1,1.65,4.4,33,33,0,0,1,.52,5.81V48.53Z"/>
        <path class="a" d="M1000,46.93c-.31.1-.62.3-1.14.5a16.13,16.13,0,0,1-1.76.6c-.62.2-1.34.4-2.17.6a10.73,10.73,0,0,1-2.58.3,7.9,7.9,0,0,1-2.69-.4,6,6,0,0,1-3.83-3.2,6,6,0,0,1-.62-2.8V19.31h-4.66v-3.4h4.66V4.9h4.45v11h7.75v3.4h-7.75V41.43a3.45,3.45,0,0,0,1.34,2.7,4.56,4.56,0,0,0,2.79.8,8.43,8.43,0,0,0,3.31-.6c.93-.4,1.56-.7,1.87-.8Z"/>
      </g>
      <g>
        <path class="a" d="M382.09,89.26a13.43,13.43,0,0,0-5.18-3.41,19.12,19.12,0,0,0-7.34-1.3c-4,0-7,.7-8.9,2.2a7.34,7.34,0,0,0-2.79,6,6.5,6.5,0,0,0,.73,3.3,5.87,5.87,0,0,0,2.27,2.2,15.89,15.89,0,0,0,3.93,1.6c1.66.5,3.52.9,5.69,1.4,2.48.5,4.66,1.1,6.62,1.7a18.5,18.5,0,0,1,5,2.31,9.34,9.34,0,0,1,4.34,8.4,10.87,10.87,0,0,1-1.24,5.3,11.13,11.13,0,0,1-3.42,3.81,15.53,15.53,0,0,1-5.27,2.2,30.11,30.11,0,0,1-25-5.71l2.27-3.6a23.88,23.88,0,0,0,2.9,2.4,19.44,19.44,0,0,0,3.83,2,22.56,22.56,0,0,0,4.45,1.31,27.12,27.12,0,0,0,5.06.5c3.62,0,6.52-.6,8.59-1.91a6.37,6.37,0,0,0,3.1-5.8,6.14,6.14,0,0,0-3.41-5.9,17.48,17.48,0,0,0-4.35-1.8c-1.75-.5-3.72-1-6-1.5a56.78,56.78,0,0,1-6.3-1.71,15.87,15.87,0,0,1-4.56-2.2,8.36,8.36,0,0,1-2.79-3.2,9.74,9.74,0,0,1-.93-4.5,12,12,0,0,1,1.24-5.51,11.74,11.74,0,0,1,3.42-4,14.24,14.24,0,0,1,5.17-2.4,22.55,22.55,0,0,1,6.62-.8A22.9,22.9,0,0,1,378,82a23.36,23.36,0,0,1,6.51,3.8Z"/>
        <path class="a" d="M395.53,135.38c.31,0,.73.1,1,.1h.93a4.82,4.82,0,0,0,1.86-.3,3.62,3.62,0,0,0,1.34-1.4,18.58,18.58,0,0,0,1.45-3.1c.52-1.3,1.35-3.1,2.28-5.4L389.74,92.66h4.55l12.52,28.62,11.58-28.62h4.24l-17.48,42a8,8,0,0,1-2.38,3.21,6.87,6.87,0,0,1-4.45,1.3h-1.24a9.92,9.92,0,0,1-1.44-.2v-3.61Z"/>
        <path class="a" d="M439.8,126a22.37,22.37,0,0,1-7.65-1.3,18.58,18.58,0,0,1-6.52-3.6l2-2.91a22.94,22.94,0,0,0,5.79,3.41,16.37,16.37,0,0,0,6.31,1.1,11.55,11.55,0,0,0,6.51-1.6,5.06,5.06,0,0,0,2.38-4.51,4,4,0,0,0-.62-2.3,5.77,5.77,0,0,0-1.86-1.6,10.58,10.58,0,0,0-3.21-1.2c-1.24-.4-2.79-.7-4.44-1.1-2-.5-3.62-.9-5.07-1.4a16.22,16.22,0,0,1-3.52-1.6,5.37,5.37,0,0,1-2.07-2.2,7.49,7.49,0,0,1-.72-3.21,8.35,8.35,0,0,1,1-4.3,7.93,7.93,0,0,1,2.69-3.1,12.34,12.34,0,0,1,4-1.8,20.68,20.68,0,0,1,11.89.6,14,14,0,0,1,5.07,3.2l-2.17,2.5a11.18,11.18,0,0,0-4.55-2.8,17.19,17.19,0,0,0-5.59-.9,15.92,15.92,0,0,0-3.21.3,6.66,6.66,0,0,0-2.58,1.1,5.18,5.18,0,0,0-1.76,1.9,5.84,5.84,0,0,0-.62,2.7,4,4,0,0,0,.41,2.1,4.89,4.89,0,0,0,1.45,1.41,12.37,12.37,0,0,0,2.59,1.1c1,.3,2.38.6,3.82,1,2.18.5,4,1,5.69,1.5a17.38,17.38,0,0,1,4.14,1.8,6.9,6.9,0,0,1,2.48,2.4,7.3,7.3,0,0,1,.83,3.5,8.25,8.25,0,0,1-3.52,7.11C447,125.08,443.84,126,439.8,126Z"/>
        <path class="a" d="M476.31,123.78c-.31.1-.62.3-1.13.5a17.77,17.77,0,0,1-1.76.6c-.62.2-1.35.4-2.17.6a10.82,10.82,0,0,1-2.59.3,8,8,0,0,1-2.69-.4,6.24,6.24,0,0,1-2.28-1.2,6.3,6.3,0,0,1-1.55-2,6,6,0,0,1-.62-2.81V96.16h-4.65v-3.4h4.65v-11H466v11h7.76v3.4H466v22.11a3.52,3.52,0,0,0,1.34,2.71,4.57,4.57,0,0,0,2.8.8,8.47,8.47,0,0,0,3.31-.6c.93-.4,1.55-.71,1.86-.81Z"/>
        <path class="a" d="M496.38,126a16.06,16.06,0,0,1-6.72-1.3,16.47,16.47,0,0,1-5.38-3.7,17.59,17.59,0,0,1-3.52-18.52,15.56,15.56,0,0,1,3.52-5.3,16.82,16.82,0,0,1,12.1-4.9,16.06,16.06,0,0,1,6.72,1.3,15.09,15.09,0,0,1,5.28,3.7,16.86,16.86,0,0,1,3.41,5.3A16.46,16.46,0,0,1,513,109v1c0,.3,0,.6-.1.7H484.07a11.82,11.82,0,0,0,1.24,4.8,12.39,12.39,0,0,0,11.28,7.21,11.7,11.7,0,0,0,3.2-.4,15.4,15.4,0,0,0,3-1.2,11.69,11.69,0,0,0,2.49-1.81,6.35,6.35,0,0,0,1.65-2.4l3.83,1a11.76,11.76,0,0,1-2.17,3.31,17.29,17.29,0,0,1-3.31,2.6,17.12,17.12,0,0,1-4.14,1.7A24.78,24.78,0,0,1,496.38,126Zm12.41-18.61a12.3,12.3,0,0,0-1.24-4.81,14.2,14.2,0,0,0-2.69-3.7,11.69,11.69,0,0,0-3.83-2.4,12.46,12.46,0,0,0-9.3,0,12.22,12.22,0,0,0-3.83,2.4,11.55,11.55,0,0,0-2.69,3.8,17.15,17.15,0,0,0-1.24,4.81h24.82Z"/>
        <path class="a" d="M569.92,125.38h-4.45V107.17q0-5.72-1.86-8.41a6.33,6.33,0,0,0-5.58-2.7,8.6,8.6,0,0,0-3.62.7,14.82,14.82,0,0,0-3.21,1.9,12.75,12.75,0,0,0-2.59,3,11.59,11.59,0,0,0-1.65,3.81v19.91h-4.45V107.17q0-5.86-1.86-8.41a6.5,6.5,0,0,0-5.59-2.6,10.36,10.36,0,0,0-6.82,2.6,14,14,0,0,0-4.24,6.81v19.91h-4.45V92.76h4v7.4a15.17,15.17,0,0,1,5.48-5.8,14,14,0,0,1,7.45-2.1,9.29,9.29,0,0,1,9.93,8.4q4.65-8.4,13-8.4a10.54,10.54,0,0,1,4.87,1,8.6,8.6,0,0,1,3.2,2.8,13.08,13.08,0,0,1,1.76,4.4,25.52,25.52,0,0,1,.52,5.81v19.11Z"/>
      </g>
    </g>
  </g>
</svg>
